<svg id="Capa_1" enable-background="new 0 0 512 512" height="512" viewBox="0 0 512 512" width="512" xmlns="http://www.w3.org/2000/svg"><g><g><circle cx="378.002" cy="256" fill="#ffe07d" r="126.59"/></g><g><path d="m446.994 149.855c12.927 19.847 20.444 43.54 20.444 68.992 0 69.914-56.676 126.59-126.59 126.59-25.452 0-49.145-7.518-68.992-20.445 22.582 34.671 61.684 57.597 106.145 57.597 69.913 0 126.59-56.676 126.59-126.59 0-44.461-22.926-83.562-57.597-106.144z" fill="#ffd064"/></g><g><path d="m378.002 280.333c-19.312 0-38.559-.894-56.108-2.154-2.041-.147-3.758 1.572-3.537 3.606 3.266 30.057 28.719 53.453 59.645 53.453s56.379-23.396 59.645-53.453c.221-2.034-1.496-3.752-3.537-3.606-17.549 1.261-36.796 2.154-56.108 2.154z" fill="#524798"/></g><g><circle cx="158.54" cy="256" fill="#ffe07d" r="126.59"/></g><g><path d="m227.533 149.855c12.927 19.847 20.444 43.54 20.444 68.992 0 69.914-56.676 126.59-126.59 126.59-25.452 0-49.145-7.518-68.992-20.445 22.582 34.671 61.684 57.597 106.145 57.597 69.913 0 126.59-56.676 126.59-126.59 0-44.461-22.926-83.562-57.597-106.144z" fill="#ffd064"/></g><g><g><path d="m57.256 348.025c-11.403 11.403-29.892 11.403-41.295 0s-11.403-29.892 0-41.295c8.421-8.421 40.633-18.113 56.905-22.606 4.259-1.176 8.172 2.737 6.996 6.996-4.494 16.272-14.185 48.484-22.606 56.905z" fill="#d3effb"/></g><g><path d="m301.119 306.73c11.403 11.403 11.403 29.892 0 41.295s-29.892 11.403-41.295 0c-8.421-8.421-18.113-40.633-22.606-56.905-1.176-4.259 2.737-8.172 6.996-6.996 16.273 4.493 48.484 14.185 56.905 22.606z" fill="#d3effb"/></g><g><path d="m72.866 284.124c-3.636 1.004-8.071 2.269-12.856 3.72-4.579 16.492-14.101 47.85-22.394 56.143-4.606 4.606-10.371 7.318-16.355 8.203 11.261 6.976 26.224 5.606 35.996-4.166 8.421-8.421 18.112-40.633 22.606-56.905 1.174-4.258-2.738-8.171-6.997-6.995z" fill="#b1e4f9"/></g><g><path d="m301.119 306.73c-4.514-4.514-15.866-9.393-27.933-13.641 3.235 1.721 5.854 3.442 7.525 5.113 11.403 11.403 11.403 29.892 0 41.295-5.759 5.759-13.323 8.599-20.871 8.542 11.405 11.388 29.881 11.383 41.279-.015 11.404-11.402 11.404-29.891 0-41.294z" fill="#b1e4f9"/></g></g><g><path d="m158.54 280.333c-19.312 0-38.559-.894-56.108-2.154-2.041-.147-3.758 1.572-3.537 3.606 3.266 30.057 28.719 53.453 59.645 53.453s56.379-23.396 59.645-53.453c.221-2.034-1.496-3.752-3.537-3.606-17.549 1.261-36.796 2.154-56.108 2.154z" fill="#524798"/></g><g><path d="m434.11 278.179c-8.69.624-17.799 1.157-27.123 1.538-4.228 26.796-26.182 47.698-53.482 50.307 7.48 3.35 15.77 5.215 24.497 5.215 30.926 0 56.379-23.396 59.645-53.453.221-2.035-1.496-3.753-3.537-3.607z" fill="#453d81"/></g><g><path d="m214.648 278.179c-8.69.624-17.799 1.157-27.123 1.538-4.228 26.796-26.182 47.698-53.482 50.307 7.48 3.35 15.77 5.215 24.497 5.215 30.926 0 56.379-23.396 59.645-53.453.221-2.035-1.496-3.753-3.537-3.607z" fill="#453d81"/></g><g><path d="m349.899 194.73c-8.066-.997-15.33 2.825-19.307 8.973-.395.61-1.275.61-1.669 0-3.977-6.148-11.242-9.971-19.308-8.973-9.06 1.12-16.307 8.495-17.289 17.572-.928 8.582 3.59 16.217 10.53 19.881 4.657 2.458 9.114 5.276 13.055 8.768l2.205 1.955c3.746 3.321 7.133 7.026 10.106 11.054.763 1.034 2.308 1.034 3.07 0 2.972-4.028 6.359-7.733 10.106-11.054l2.205-1.955c3.94-3.493 8.399-6.31 13.055-8.769 6.94-3.664 11.459-11.3 10.53-19.882-.981-9.075-8.228-16.45-17.289-17.57z" fill="#dd636e"/></g><g><path d="m446.387 194.73c-8.066-.997-15.33 2.825-19.307 8.973-.395.61-1.275.61-1.669 0-3.977-6.148-11.242-9.971-19.308-8.973-9.06 1.12-16.307 8.495-17.289 17.572-.928 8.582 3.59 16.217 10.53 19.881 4.657 2.458 9.115 5.276 13.055 8.768l2.205 1.955c3.746 3.321 7.133 7.026 10.106 11.054.763 1.034 2.308 1.034 3.07 0 2.972-4.028 6.359-7.733 10.106-11.054l2.205-1.955c3.94-3.493 8.399-6.31 13.055-8.769 6.94-3.664 11.459-11.3 10.53-19.882-.981-9.075-8.228-16.45-17.289-17.57z" fill="#dd636e"/></g><g><g><path d="m348.471 194.603c-1.364-.074-2.697 0-3.993.187 4.601 3.556 7.643 9.049 7.822 15.19.228 7.847-4.076 14.711-10.488 18.169-4.867 2.625-9.539 5.597-13.677 9.265l-1.738 1.54c-2.135 1.892-4.138 3.923-6.03 6.054 2.859 2.763 5.493 5.75 7.855 8.952.763 1.034 2.308 1.034 3.07 0 2.972-4.028 6.359-7.733 10.105-11.054l1.738-1.541c4.138-3.668 8.81-6.641 13.677-9.265 6.412-3.458 10.716-10.322 10.488-18.169-.298-10.27-8.57-18.77-18.829-19.328z" fill="#d82e3d"/></g></g><g><g><path d="m449.241 195.333c-2.879-.836-5.653-.923-8.276-.543 4.601 3.556 7.643 9.049 7.822 15.19.228 7.847-4.076 14.711-10.488 18.169-4.867 2.625-9.539 5.597-13.677 9.265l-1.738 1.54c-2.135 1.892-4.138 3.923-6.03 6.054 2.859 2.763 5.493 5.75 7.856 8.952.763 1.034 2.308 1.034 3.07 0 2.972-4.028 6.359-7.733 10.105-11.054l.268-.238c4.513-4 9.388-7.619 14.758-10.364 6.632-3.39 11.118-10.382 10.875-18.397-.259-8.628-6.255-16.166-14.545-18.574z" fill="#d82e3d"/></g></g><g><path d="m378.002 122.002c-34.47 0-67.22 13.061-92.216 36.778-2.968 2.816-3.092 7.505-.275 10.473 2.817 2.969 7.506 3.093 10.473.275 22.231-21.093 51.358-32.709 82.018-32.709 65.717 0 119.181 53.464 119.181 119.181s-53.464 119.181-119.181 119.181c-25.385 0-50.176-8.169-70.53-23.112 4.217-4.608 7.199-10.193 8.63-16.271.939-3.983-1.53-7.972-5.512-8.909-3.978-.942-7.971 1.529-8.909 5.512-.925 3.925-2.93 7.516-5.8 10.385-4.115 4.116-9.588 6.383-15.408 6.383s-11.293-2.267-15.409-6.383c-3.819-3.82-10.999-19.148-19.884-50.702 24.443 6.892 42.824 13.884 49.474 18.85 3.279 2.449 7.922 1.773 10.369-1.504 2.448-3.279 1.774-7.921-1.504-10.369-3.711-2.771-9.175-5.558-15.555-8.249 3.033-11.308 4.575-22.996 4.575-34.813 0-8.607-.826-17.023-2.384-25.182 2.391 3.225 5.515 5.949 9.242 7.917 9.851 5.245 16.404 11.249 22.863 19.624 1.748 2.369 4.55 3.784 7.494 3.785h.003c2.944 0 5.746-1.413 7.497-3.784 6.465-8.381 13.007-14.374 22.864-19.625 9.988-5.274 15.655-15.962 14.436-27.23-1.346-12.446-11.334-22.592-23.747-24.127h.001c-7.772-.957-15.318 1.342-21.051 6.176-5.734-4.834-13.283-7.134-21.051-6.176-12.414 1.535-22.4 11.682-23.746 24.127-.002.02-.002.041-.004.061-18.371-52.112-68.098-89.564-126.416-89.564-37.791 0-74.015 16.082-99.386 44.12-2.745 3.034-2.511 7.719.523 10.464s7.719 2.51 10.464-.523c22.567-24.941 54.787-39.244 88.399-39.244 65.717 0 119.182 53.464 119.182 119.181 0 10.015-1.253 19.918-3.701 29.524-9.273-3.211-19.131-6.137-27.835-8.541-4.536-1.252-9.42.036-12.747 3.363s-4.614 8.211-3.362 12.746c5.323 19.279 10.375 34.226 15.108 44.732-22.466 23.771-53.893 37.358-86.646 37.358-32.73 0-64.184-13.596-86.645-37.361 4.733-10.506 9.784-25.452 15.107-44.729 1.252-4.536-.036-9.42-3.362-12.746-3.327-3.326-8.209-4.615-12.747-3.363-10.595 2.926-19.873 5.768-27.834 8.522-2.444-9.597-3.701-19.49-3.701-29.505 0-19.211 4.428-37.547 13.161-54.498 1.874-3.638.444-8.105-3.193-9.978-3.638-1.876-8.105-.445-9.979 3.193-9.684 18.802-14.804 39.993-14.804 61.284 0 11.82 1.544 23.499 4.576 34.801-8.888 3.765-15.042 7.336-18.395 10.69-6.915 6.915-10.723 16.108-10.723 25.887s3.808 18.972 10.722 25.885c6.915 6.915 16.108 10.724 25.886 10.724s18.972-3.808 25.886-10.724c.588-.588 1.183-1.271 1.785-2.031 24.997 24.715 58.971 38.766 94.261 38.766 35.315 0 69.26-14.046 94.26-38.767.602.76 1.197 1.443 1.786 2.032 6.915 6.915 16.108 10.724 25.886 10.724 5.018 0 9.88-1.01 14.361-2.921 23.577 18.676 53.003 28.932 83.169 28.932 73.886 0 133.998-60.111 133.998-133.998s-60.112-133.998-133.998-133.998zm-78.31 91.096c.641-6.24 6.175-11.191 12.441-11.114 4.275 0 8.227 2.115 10.571 5.745 1.552 2.41 4.187 3.85 7.049 3.852h.005c2.861-.001 5.496-1.437 7.05-3.844 2.639-4.091 7.316-6.251 12.182-5.654h.001c5.662.7 10.218 5.333 10.834 11.015.561 5.193-2.038 10.112-6.624 12.533-6.904 3.629-11.774 7.176-16.715 11.731-2.372 2.103-4.622 4.354-6.727 6.731-2.106-2.377-4.354-4.628-6.726-6.732-4.943-4.554-9.809-8.1-16.715-11.73-4.588-2.42-7.188-7.34-6.626-12.533zm-263.084 136.072c-5.821 0-11.293-2.267-15.409-6.384-4.116-4.115-6.383-9.588-6.383-15.408s2.267-11.293 6.383-15.409c3.819-3.818 19.144-10.998 50.702-19.884-8.886 31.557-16.066 46.883-19.885 50.702-4.115 4.116-9.587 6.383-15.408 6.383z"/><path d="m322.424 270.79c-3.181-.24-6.288.96-8.508 3.26-2.2 2.281-3.266 5.392-2.925 8.535 3.721 34.241 32.53 60.061 67.011 60.061 34.482 0 63.29-25.821 67.01-60.062.341-3.142-.724-6.253-2.926-8.535-2.219-2.301-5.325-3.501-8.506-3.26-19.72 1.416-38.419 2.135-55.578 2.135-17.16.001-35.859-.718-55.578-2.134zm55.578 57.04c-25.218 0-46.546-17.694-51.508-41.907 18.19 1.207 35.494 1.818 51.508 1.818 16.013 0 33.316-.612 51.508-1.818-4.962 24.213-26.29 41.907-51.508 41.907z"/><path d="m112.093 233.327c1.97-2.857 5.211-4.563 8.67-4.563s6.7 1.705 8.67 4.563c1.437 2.085 3.751 3.204 6.106 3.204 1.45 0 2.915-.425 4.199-1.31 3.369-2.323 4.216-6.937 1.894-10.305-4.735-6.867-12.536-10.968-20.868-10.968-8.33 0-16.131 4.1-20.868 10.968-2.323 3.369-1.475 7.981 1.893 10.304 3.367 2.323 7.981 1.475 10.304-1.893z"/><path d="m187.648 233.327c1.97-2.857 5.211-4.563 8.67-4.563s6.7 1.705 8.67 4.563c1.437 2.085 3.751 3.204 6.106 3.204 1.45 0 2.915-.425 4.199-1.31 3.369-2.323 4.216-6.937 1.894-10.305-4.735-6.867-12.536-10.968-20.868-10.968-8.33 0-16.131 4.1-20.868 10.968-2.323 3.369-1.475 7.981 1.893 10.304 3.367 2.323 7.98 1.475 10.304-1.893z"/><path d="m91.53 282.585c3.72 34.241 32.529 60.061 67.01 60.061s63.29-25.821 67.01-60.062c.341-3.142-.725-6.253-2.925-8.535-2.219-2.301-5.32-3.497-8.508-3.26-19.719 1.416-38.418 2.135-55.577 2.135s-35.858-.719-55.577-2.135c-3.192-.239-6.289.96-8.508 3.26-2.2 2.283-3.267 5.394-2.925 8.536zm67.01 5.156c16.014 0 33.317-.612 51.508-1.818-4.962 24.212-26.29 41.907-51.508 41.907s-46.546-17.694-51.508-41.907c18.191 1.207 35.495 1.818 51.508 1.818z"/><path d="m426.245 193.554c-5.734-4.834-13.284-7.134-21.051-6.176-12.414 1.535-22.4 11.682-23.745 24.127-1.219 11.268 4.448 21.956 14.436 27.23 9.851 5.248 16.404 11.249 22.863 19.624 1.748 2.369 4.55 3.784 7.494 3.785h.003c2.944 0 5.746-1.413 7.497-3.784 6.465-8.381 13.007-14.374 22.864-19.625 9.988-5.274 15.655-15.962 14.436-27.23-1.346-12.446-11.334-22.592-23.747-24.127h.001c-7.772-.957-15.317 1.342-21.051 6.176zm30.067 19.545c.561 5.193-2.038 10.112-6.624 12.533-6.904 3.629-11.774 7.176-16.715 11.731-2.372 2.103-4.622 4.353-6.727 6.73-2.104-2.376-4.353-4.626-6.726-6.731-4.943-4.554-9.809-8.1-16.715-11.73-4.585-2.42-7.186-7.34-6.623-12.534.641-6.24 6.176-11.191 12.441-11.114 4.274 0 8.227 2.116 10.575 5.752 1.554 2.408 4.188 3.845 7.05 3.845 2.86 0 5.495-1.437 7.049-3.844 2.639-4.091 7.316-6.251 12.182-5.654h.001c5.661.701 10.217 5.333 10.832 11.016z"/></g></g></svg>