<svg id="Layer_35" enable-background="new 0 0 64 64" height="512" viewBox="0 0 64 64" width="512" xmlns="http://www.w3.org/2000/svg"><g fill="#f0bc5e"><path d="m52 23c-6.065 0-11-4.935-11-11s4.935-11 11-11 11 4.935 11 11-4.935 11-11 11z"/><path d="m12 23c-6.065 0-11-4.935-11-11s4.935-11 11-11 11 4.935 11 11-4.935 11-11 11z"/><path d="m52 63c-6.065 0-11-4.935-11-11s4.935-11 11-11 11 4.935 11 11-4.935 11-11 11z"/><path d="m12 63c-6.065 0-11-4.935-11-11s4.935-11 11-11 11 4.935 11 11-4.935 11-11 11z"/></g><path d="m36.032 16.712c1.792-1.269 2.968-3.354 2.968-5.712 0-3.86-3.141-7-7-7s-7 3.14-7 7c0 2.358 1.176 4.443 2.968 5.712-4.637 1.662-7.968 6.087-7.968 11.288v6c0 2.206 1.794 4 4 4h1.001l.001 21.001c0 2.205 1.794 3.999 3.999 3.999 1.2 0 2.266-.542 2.999-1.382.734.84 1.8 1.382 3.001 1.382 2.205 0 3.999-1.794 3.999-3.999v-21.001h1c2.206 0 4-1.794 4-4v-6c0-5.201-3.331-9.626-7.968-11.288zm-9.032-5.712c0-2.757 2.243-5 5-5s5 2.243 5 5-2.243 5-5 5-5-2.243-5-5zm15 23c0 1.103-.897 2-2 2h-1v-13h-2v36.001c0 1.102-.897 1.999-2.001 1.999-1.103 0-1.999-.897-1.999-1.999v-24.001h-2v24.001c0 1.102-.896 1.999-1.999 1.999s-1.999-.897-1.999-1.999l-.002-35.001h-2l.001 12h-1.001c-1.103 0-2-.897-2-2v-6c0-5.514 4.486-10 10-10s10 4.486 10 10z"/><path d="m52 19c3.859 0 7-3.14 7-7h-2c0 2.757-2.243 5-5 5s-5-2.243-5-5h-2c0 3.86 3.141 7 7 7z"/><circle cx="49" cy="8" r="1"/><circle cx="55" cy="8" r="1"/><path d="m12 11c-3.309 0-6 2.691-6 6h2c0-2.206 1.794-4 4-4s4 1.794 4 4h2c0-3.309-2.691-6-6-6z"/><circle cx="9" cy="8" r="1"/><circle cx="15" cy="8" r="1"/><circle cx="49" cy="48" r="1"/><circle cx="55" cy="48" r="1"/><circle cx="9" cy="48" r="1"/><circle cx="15" cy="48" r="1"/><path d="m55.711 54.384c-.383.49-.489.576-.714.576-.224 0-.33-.086-.713-.576-.419-.536-1.051-1.344-2.289-1.344-1.237 0-1.869.809-2.287 1.345-.382.489-.488.575-.711.575s-.329-.086-.711-.576c-.418-.535-1.049-1.344-2.286-1.344v2c.222 0 .328.086.71.575.418.535 1.05 1.345 2.287 1.345s1.869-.809 2.287-1.345c.382-.489.488-.575.711-.575.224 0 .33.086.713.576.419.536 1.051 1.344 2.289 1.344s1.871-.809 2.29-1.344c.383-.49.489-.576.713-.576v-2c-1.238 0-1.87.809-2.289 1.344z"/><path d="m6 54h12v2h-12z"/></svg>